<svg xmlns="http://www.w3.org/2000/svg" fill-rule="evenodd" clip-rule="evenodd" image-rendering="optimizeQuality" shape-rendering="geometricPrecision" text-rendering="geometricPrecision" version="1.0" viewBox="0 0 65789 65789" id="astronaut"><g fill="#000000" class="color000000 svgShape"><path fill="#374c44" d="M32894 0c18167,0 32894,14727 32894,32894 0,18167 -14727,32894 -32894,32894 -18167,0 -32894,-14727 -32894,-32894 0,-18167 14727,-32894 32894,-32894z" class="color37414c svgShape"></path><path fill="#9cdfc6" fill-rule="nonzero" d="M56105 54062c0,2503 -2199,4531 -4913,4531l-36595 0c-2713,0 -4912,-2029 -4912,-4531l0 -18712c0,-2503 2199,-4531 4912,-4531l36595 0c2713,0 4913,2029 4913,4531l0 18712z" class="color9cd1df svgShape"></path><path fill="#b5edd8" fill-rule="nonzero" d="M54038 53305c0,2223 -2004,4026 -4475,4026l-33337 0c-2472,0 -4475,-1802 -4475,-4026l0 -16623c0,-2223 2004,-4026 4475,-4026l33337 0c2471,0 4475,1802 4475,4026l0 16623z" class="colorb5e4ed svgShape"></path><path fill="#9cdfc6" fill-rule="nonzero" d="M50715 60466l-1976-15504 5782-3860c0 0 4629 350 6684 8486-2666 4387-6256 8110-10490 10877zM15074 60466l1976-15504-5782-3860c0 0-4629 350-6684 8486 2665 4387 6256 8110 10490 10877z" class="color9cd1df svgShape"></path><path fill="#ffffff" fill-rule="nonzero" d="M42526 38232l-9631 0 -9631 0 -11995 2871c0,0 2890,3970 3720,19308 5176,3405 11319,5379 17907,5379 6589,0 12731,-1973 17907,-5379 830,-15338 3720,-19308 3720,-19308l-11996 -2871z" class="colorffffff svgShape"></path><path fill="#5effc3" fill-rule="nonzero" d="M41532 34544l-8637 521-8637-521c-86-56-2176 3971-2176 3971 0 0 1757 4341 10814 4341 9057 0 10813-4341 10813-4341 0 0-2090-4027-2176-3971zM6845 44292c0 0 6377 8654 8047 16056 44 29 88 56 132 85 28-2531-53-14089-3756-19331 0 0-3882-1110-4423 3190zM58944 44292c0 0-6377 8654-8047 16056-43 29-88 56-132 85-28-2531 53-14089 3756-19331 0 0 3882-1110 4423 3190z" class="colorff7c5e svgShape"></path><path fill="#f2fffa" fill-rule="nonzero" d="M48488 21123c0,8725 -6628,15797 -15593,15797 -8965,0 -15593,-7073 -15593,-15797 0,-8724 6628,-15797 15593,-15797 8965,0 15593,7073 15593,15797z" class="colorf2fbff svgShape"></path><path fill="#9cdfc6" fill-rule="nonzero" d="M32894 13507c-3834,0 -11819,1263 -11819,2797 0,1534 0,9518 0,10962 0,1444 5219,4512 11819,4512 6599,0 11819,-3068 11819,-4512 0,-1444 0,-9427 0,-10962 0,-1534 -7985,-2797 -11819,-2797z" class="color9cd1df svgShape"></path><path fill="#16563e" fill-rule="nonzero" d="M32894 15209c-3540,0 -10912,1026 -10912,2272 0,1246 0,8054 0,9227 0,1173 4819,4280 10912,4280 6093,0 10912,-3107 10912,-4280 0,-1173 0,-7981 0,-9227 0,-1246 -7372,-2272 -10912,-2272z" class="color163d56 svgShape"></path><path fill="#9cdfc6" d="M23299 47867l19064 0c926,0 1684,758 1684,1684l0 10705c0,926 -758,1684 -1684,1684l-19064 0c-926,0 -1684,-758 -1684,-1684l0 -10705c0,-926 758,-1684 1684,-1684z" class="color9cd1df svgShape"></path><path fill="#2fe19e" d="M23755 48365l18151 0c847,0 1540,696 1540,1547l0 9836c0,851 -693,1547 -1540,1547l-18151 0c-847,0 -1540,-696 -1540,-1547l0 -9836c0,-851 693,-1547 1540,-1547z" class="color2fb1e1 svgShape"></path><path fill="#ffffff" d="M32636 54211l9262 0c140 0 256 115 256 256l0 0c0 141-115 256-256 256l-9262 0c-140 0-256-115-256-256l0 0c0-140 115-256 256-256zM32636 55594l9262 0c140 0 256 115 256 256l0 0c0 141-115 256-256 256l-9262 0c-140 0-256-115-256-256l0 0c0-140 115-256 256-256z" class="colorffffff svgShape"></path><g fill="#000000" class="color000000 svgShape"><polygon fill="#bbbbbb" fill-rule="nonzero" points="25050 59711 24035 59711 24035 59441 25050 59441" class="colorbbbbbb svgShape"></polygon><path fill="#747474" fill-rule="nonzero" d="M25231 59226c0,156 -126,282 -282,282l-1061 0c-156,0 -282,-126 -282,-282 0,-156 126,-282 282,-282l1061 0c156,0 282,126 282,282z" class="color747474 svgShape"></path><polygon fill="#bbbbbb" fill-rule="nonzero" points="27962 59711 26947 59711 26947 59441 27962 59441" class="colorbbbbbb svgShape"></polygon><path fill="#747474" fill-rule="nonzero" d="M28143 59226c0,156 -126,282 -282,282l-1061 0c-156,0 -282,-126 -282,-282 0,-156 126,-282 282,-282l1061 0c156,0 282,126 282,282z" class="color747474 svgShape"></path><path fill="#5effc3" fill-rule="nonzero" d="M25991 49301c-877,105 -1030,1638 -1030,1951l0 6540 1030 1 0 -8492zm0 -1c881,106 1035,1638 1035,1952l0 6540 -1035 0 0 -8492z" class="colorff7c5e svgShape"></path><path fill="#ffffff" fill-rule="nonzero" d="M24883 57835l59 -15c0,0 96,-4318 0,-5834 -21,-335 -152,-747 -303,-1106 -98,-233 -185,-291 -234,-303l0 0c-49,12 -136,70 -234,303 -152,358 -282,771 -303,1106 -96,1516 0,5834 0,5834l59 15 478 0 0 0 478 0z" class="colorffffff svgShape"></path><path fill="#f3f3f3" fill-rule="nonzero" d="M24405 50578c-49,12 -136,70 -234,303 -152,358 -282,771 -303,1106 -96,1516 0,5834 0,5834l59 15 478 0 0 -7258z" class="colorf3f3f3 svgShape"></path><path fill="#ffffff" fill-rule="nonzero" d="M27092 57835l478 0 0 0 478 0 59 -15c0,0 96,-4318 0,-5834 -21,-335 -152,-747 -303,-1106 -99,-233 -186,-291 -234,-303l0 0 0 0 0 0 0 0c-49,12 -136,71 -234,303 -152,358 -282,771 -303,1106 -96,1516 0,5834 0,5834l59 15z" class="colorffffff svgShape"></path><path fill="#f3f3f3" fill-rule="nonzero" d="M27570 57835l0 0 478 0 59 -15c0,0 96,-4318 0,-5834 -21,-335 -152,-747 -303,-1106 -99,-233 -186,-291 -234,-303l0 0 0 0 0 7258z" class="colorf3f3f3 svgShape"></path><path fill="#bbbbbb" fill-rule="nonzero" d="M25014 55335c-197 1303-1034 1996-1466 2349-431 353-333 937-333 937l-62 0 0 285 2131 557 0-5703 0-68c-62 339-271 1643-271 1643zM26960 55335c197 1303 1035 1996 1466 2349 431 353 333 937 333 937l62 0 0 285-2131 557 0-5703 0-68c62 339 271 1643 271 1643z" class="colorbbbbbb svgShape"></path><path fill="#e5e5e5" fill-rule="nonzero" d="M25616 51677c-6,19 -13,39 -19,60 -394,1231 -345,2535 -345,2535l0 5286 739 0 0 -7881 -375 0zm769 62c-7,-22 -14,-42 -20,-62l-374 0 0 7883 739 0 0 -5287c0,0 49,-1303 -345,-2535z" class="colore5e5e5 svgShape"></path><path fill="#64f5bf" fill-rule="nonzero" d="M26485 52858c0,0 -33,-298 -67,-392 -42,-117 -146,-250 -427,-252l0 643 494 0zm-494 0l0 -646c-291,5 -385,117 -427,230 -36,99 -68,416 -68,416l495 0z" class="color64b3f5 svgShape"></path><path fill="#747474" fill-rule="nonzero" d="M25991 51736l0 -597c-111,0 -211,24 -394,597l394 0zm0 0l0 -597c99,-3 210,24 394,597l-394 0z" class="color747474 svgShape"></path><path fill="#bbbbbb" d="M25419 59428l1169 0c92,0 168,75 168,167l0 0c0,92 -76,168 -168,168l-1169 0c-92,0 -168,-76 -168,-168l0 0c0,-92 76,-167 168,-167z" class="colorbbbbbb svgShape"></path></g><g fill="#000000" class="color000000 svgShape"><path fill="#9cdfc6" d="M13734 15366l4758 -1601c329,-111 632,284 632,631l0 9147c0,347 -284,631 -632,631l-4721 0c-347,0 -632,-284 -632,-631l0 -7223c0,-347 265,-844 594,-955z" class="color9cd1df svgShape"></path><path fill="#ffffff" d="M14252 15690l3761 -1250c263,-87 503,227 503,503l0 8158c0,276 -226,503 -503,503l-3761 0c-277,0 -503,-226 -503,-503l0 -6908c0,-277 241,-416 503,-503z" class="colorffffff svgShape"></path><g fill="#000000" class="color000000 svgShape"><path fill="#2fe19e" d="M16099 16441c1053,0 1906,853 1906,1906 0,1053 -853,1906 -1906,1906 -1053,0 -1906,-853 -1906,-1906 0,-1053 853,-1906 1906,-1906z" class="color2fb1e1 svgShape"></path><path fill="#4d4d4d" d="M16099 16792c859,0 1555,696 1555,1555 0,859 -696,1555 -1555,1555 -859,0 -1555,-696 -1555,-1555 0,-859 696,-1555 1555,-1555z" class="color4d4d4d svgShape"></path><path fill="#1a1a1a" d="M16099 17837c282,0 511,229 511,511 0,282 -229,511 -511,511 -282,0 -511,-229 -511,-511 0,-282 229,-511 511,-511z" class="color1a1a1a svgShape"></path><path fill="#e6e6e6" d="M15541 17247c200,0 363,162 363,363 0,200 -163,363 -363,363 -200,0 -363,-163 -363,-363 0,-201 163,-363 363,-363z" class="colore6e6e6 svgShape"></path></g><path fill="#5effc3" d="M16036 21950c274,0 497,222 497,497 0,274 -222,497 -497,497 -274,0 -497,-222 -497,-497 0,-274 222,-497 497,-497z" class="colorff7c5e svgShape"></path></g><g fill="#000000" class="color000000 svgShape"><path fill="#9cdfc6" d="M50958 15366l-4759 -1601c-329,-111 -631,284 -631,631l0 9147c0,347 284,631 631,631l4721 0c347,0 632,-284 632,-631l0 -7223c0,-347 -265,-844 -594,-955z" class="color9cd1df svgShape"></path><path fill="#ffffff" d="M50441 15690l-3761 -1250c-263,-87 -503,227 -503,503l0 8158c0,276 227,503 503,503l3761 0c277,0 503,-226 503,-503l0 -6908c0,-277 -240,-416 -503,-503z" class="colorffffff svgShape"></path><g fill="#000000" class="color000000 svgShape"><path fill="#2fe19e" d="M48594 16441c-1053,0 -1906,853 -1906,1906 0,1053 853,1906 1906,1906 1053,0 1906,-853 1906,-1906 0,-1053 -853,-1906 -1906,-1906z" class="color2fb1e1 svgShape"></path><path fill="#4d4d4d" d="M48594 16792c-859,0 -1555,696 -1555,1555 0,859 696,1555 1555,1555 859,0 1555,-696 1555,-1555 0,-859 -696,-1555 -1555,-1555z" class="color4d4d4d svgShape"></path><path fill="#1a1a1a" d="M48594 17837c-282,0 -511,229 -511,511 0,282 229,511 511,511 282,0 511,-229 511,-511 0,-282 -229,-511 -511,-511z" class="color1a1a1a svgShape"></path><path fill="#e6e6e6" d="M49152 17247c-201,0 -363,162 -363,363 0,200 162,363 363,363 200,0 363,-163 363,-363 0,-201 -163,-363 -363,-363z" class="colore6e6e6 svgShape"></path></g><path fill="#5effc3" d="M48657 21950c-274,0 -497,222 -497,497 0,274 222,497 497,497 274,0 497,-222 497,-497 0,-274 -222,-497 -497,-497z" class="colorff7c5e svgShape"></path></g><path fill="#2fa77a" d="M43550 17076l-5938 13297c-1423,373 -3021,614 -4718,614 -1257,0 -2460,-133 -3578,-353l6807 -15243c3033,297 6474,928 7427,1685zm-10943 -1865c-584,8 -1254,41 -1967,95l-6105 13672c478,253 1014,500 1599,730l6474 -14497z" class="color3d657d svgShape"></path></g></svg>