r<svg xmlns="http://www.w3.org/2000/svg" enable-background="new 0 0 3000 3000" viewBox="0 0 3000 3000" id="Mortgageloan"><g fill="#000000" class="color000000 svgShape"><path fill="#2fa77a" d="M2537.92,1132.6l-360.39-207.56c-44.57-25.67-73.94-71.34-78.8-122.53l-24.58-258.57
		c-9.56-100.55-109.35-166.72-205.69-136.39l-336.81,106.03c-60.12,18.93-125.73,0.49-167.2-46.97l-89.56-102.5
		c-88.18-100.92-254.02-53.9-276.1,78.29l-134.71,806.48c-7.5,44.89-33.9,84.4-72.51,108.5l-386.59,241.35
		c-110.47,68.97-95.47,234.28,25.61,282.24l244.31,96.76c94.77,37.53,130.11,153.38,72.42,237.42l0,0
		c-73.98,107.78,6.74,253.78,137.36,248.44l159.89-6.54c65.15-2.66,125.3,34.78,151.66,94.41l19.6,44.33
		c57.78,130.68,245.3,124.45,294.29-9.77l93.09-255.03c25.44-69.7,95.77-112.48,169.36-103.01l473.76,60.93
		c128.48,16.52,221.59-119.5,159.69-233.3l-176.06-323.64c-44.42-81.65-9.49-183.82,75.61-221.19l216.96-95.28
		C2641.69,1363.16,2650.7,1197.55,2537.92,1132.6z" class="color00cfff svgShape"></path><g fill="#000000" class="color000000 svgShape"><g fill="#000000" class="color000000 svgShape"><path d="M2332.28,1362.03c6.63-45.2,17.03-87.32,31.51-127.31c23.69-65.37,56.78-105.3,98.41-118.76
				c0.96-0.31,1.93-0.61,2.9-0.89c12.99-3.79,24.04-3.85,32.85-0.16c18.07,7.58,25.07,31.15,21.41,49.57
				c-4.15,20.84-18.72,38.86-32.43,53.72c-16.9,18.33-35.61,35.68-53.68,52.46c-23.21,21.55-47.22,43.82-68,68.64
				c-5.02,6-9.73,12.1-14.16,18.26c-33.86,82.37-70.46,197.72-66.17,304.04c0.92,22.7,3.59,41.37,6.73,56.16
				c7.14-42.49,33.39-109.03,117.72-185.27c24.37-35.91,50.7-67.8,79.53-96.39c49.38-48.94,96.38-70.88,139.76-65.23
				c1,0.13,2,0.27,3,0.44c13.37,2.13,23.38,6.81,29.76,13.92c13.08,14.58,9.33,38.89-1.86,53.96
				c-12.67,17.07-33.55,27.11-52.3,34.68c-23.12,9.33-47.45,17.01-70.96,24.45c-30.2,9.54-61.43,19.4-90.83,32.94
				c-9.15,4.21-17.9,8.79-26.26,13.65c-0.01,0.01-0.01,0.01-0.02,0.02c4.67-0.29,10.12-0.39,16.47-0.17
				c26.17-5.37,51.64-8.38,76.85-9.02c47.5-1.2,81.15,9.92,100.08,33.06c0.44,0.54,0.87,1.07,1.29,1.62
				c5.65,7.32,8.43,14.34,8.28,20.87c-0.33,13.38-13.58,23.71-26.22,25.96c-14.3,2.55-29.39-2.24-42.26-7.27
				c-15.87-6.19-31.57-13.78-46.75-21.1c-19.49-9.41-39.64-19.14-60.61-26.19c-2.01-0.67-4.01-1.31-6.01-1.92
				c-26.88-1.59-37.06,2.73-37.56,2.95c-1.29,0.66-2.69,0.89-4.04,0.81c-49.17,49.67-72.25,93.17-83.01,124.09
				c-15.73,45.23-9.19,73.88-9.11,74.25c0.03,0.14,0.03,0.28,0.06,0.42c0.05,0.28,0.09,0.55,0.12,0.82c0.02,0.25,0.03,0.5,0.02,0.75
				c0,0.26-0.02,0.51-0.05,0.76c-0.03,0.26-0.07,0.51-0.13,0.76c-0.05,0.24-0.11,0.48-0.19,0.72c-0.08,0.24-0.16,0.47-0.26,0.71
				c-0.1,0.24-0.21,0.46-0.33,0.69c-0.12,0.22-0.24,0.42-0.38,0.62c-0.14,0.21-0.3,0.42-0.46,0.62c-0.16,0.2-0.33,0.38-0.52,0.56
				c-0.17,0.17-0.35,0.34-0.55,0.5c-0.22,0.18-0.45,0.34-0.68,0.5c-0.12,0.08-0.22,0.17-0.34,0.25c-0.07,0.04-0.15,0.05-0.22,0.09
				c-0.46,0.25-0.95,0.46-1.48,0.62c-0.11,0.03-0.21,0.09-0.31,0.11c-0.02,0-0.03,0.01-0.05,0.02c-0.57,0.14-1.13,0.19-1.69,0.21
				c-0.07,0-0.14,0.03-0.21,0.03c0,0,0,0-0.01,0c0,0,0,0-0.01,0c-0.61,0-1.2-0.1-1.78-0.23c-0.13-0.03-0.26-0.06-0.38-0.1
				c-0.57-0.16-1.12-0.38-1.64-0.66c-0.07-0.04-0.13-0.09-0.2-0.13c-0.47-0.28-0.9-0.61-1.3-0.98c-0.09-0.08-0.19-0.16-0.27-0.25
				c-0.43-0.43-0.81-0.92-1.13-1.45c-0.03-0.04-0.06-0.07-0.09-0.11c-0.81-1.38-19.78-34.65-22.89-104.86
				C2264.61,1558.8,2298.86,1445.58,2332.28,1362.03z" fill="#000000" class="color000000 svgShape"></path><circle cx="2466.47" cy="1164" r="16.67" fill="#ffffff" class="colorffffff svgShape"></circle><circle cx="2604.03" cy="1427.12" r="16.67" fill="#ffffff" class="colorffffff svgShape"></circle><circle cx="2581.2" cy="1582.02" r="13.89" fill="#ffffff" class="colorffffff svgShape"></circle></g><g fill="#000000" class="color000000 svgShape"><path d="M1007,848.38c36.49,55.15,66.98,114.26,89.74,177.25c11.54,31.95,21.18,67.01,11.04,99.43
				c-11.08,35.4-44.19,60.27-79.4,71.94c-86.02,28.51-182.95-11.57-246.3-76.37c-63.35-64.8-99.93-150.48-134.32-234.33
				c-27.08-66.01-54.04-133.08-94.71-192.16c-17.43-25.32-110.86-118.93-78.96-152.12c43.42-46.83,193.71-27.21,301.64,58.63
				C864.65,671.35,944.6,754.07,1007,848.38z" fill="#000000" class="color000000 svgShape"></path><path fill="#ffffff" d="M597.59,604.79c2.98-3.51,8.24-3.94,11.74-0.96c150.92,128.12,258.9,281.68,322.9,387.94
				c0.35,0.58,0.69,1.15,1.03,1.73c-11.65-70.75-47.33-217.43-150.35-313.42c-3.18-2.97-3.36-7.95-0.4-11.13
				c2.97-3.18,7.95-3.36,11.13-0.4c75.31,70.17,114.97,165.66,134.97,233.41c18.3,61.99,23.88,111.56,25.25,126.73
				c54.83,96.16,81.96,164.49,82.26,165.25c1.69,4.28-0.42,9.12-4.7,10.81c-0.04,0.01-0.08,0.03-0.12,0.04
				c-4.25,1.6-9.02-0.5-10.69-4.75c-0.58-1.49-26.98-67.45-80.58-161.49c-0.32-0.44-0.59-0.91-0.81-1.41
				c-19.76-34.59-43.18-72.93-70.33-113.24c-20.94,4.52-85.8,7.85-164.96-92.26c-2.7-3.41-2.12-8.36,1.29-11.06
				c3.41-2.7,8.36-2.12,11.06,1.29c66.04,83.51,120.3,89.5,142.71,87.49c-65.88-95.74-152.39-201.1-260.46-292.84
				C595.04,613.56,594.61,608.3,597.59,604.79z" class="colorffffff svgShape"></path></g><g fill="#000000" class="color000000 svgShape"><path d="M2433.9,1767.96c0-0.03,0-0.07,0-0.1l0-0.4l-0.01,0c-0.07-22.66-14.71-45.29-44.03-62.59l-1177.98-690.33
				c-58.95-34.79-154.95-34.77-214.28,0.03l-511.75,300.31c-29.86,17.52-44.75,40.53-44.68,63.5l-0.01,0l0.23,54.35
				c0.07,22.68,14.74,45.32,44.02,62.61l1177.98,690.33c59.04,34.83,154.95,34.77,214.28-0.04l511.75-300.32
				c29.86-17.52,44.79-40.52,44.72-63.5L2433.9,1767.96z" fill="#000000" class="color000000 svgShape"></path><path fill="#ffffff" d="M1867.22,2114.51l523.93-307.46c32.09-18.83,32.08-65.89-0.02-84.71l-1188.15-696.69
				c-59.6-34.95-133.01-34.94-192.6,0.02l-81.12,47.59c-1.62,0.95-2.95,2.32-3.87,3.97l-38.21,68.94c-1.33,2.4-3.27,4.39-5.61,5.76
				l-159.51,93.63c-1.68,0.99-3.54,1.61-5.47,1.84l-101.42,12.05c-2.59,0.31-5.09,1.15-7.35,2.47l-131.96,77.43
				c-27.97,16.41-27.96,57.43,0.01,73.83l1196.11,701.36C1732.39,2149.97,1806.82,2149.96,1867.22,2114.51z" class="colorffffff svgShape"></path><path fill="#ffffff" d="M833.88 1132.77l-106.63 62.56c-5.87 3.45-6.51 8.66-1.42 11.64 5.09 2.98 13.97 2.61 19.85-.84l106.63-62.56c5.87-3.45 6.51-8.66 1.42-11.64C848.64 1128.95 839.76 1129.32 833.88 1132.77zM690.8 1585.04c-1.02-3.05-2.56-6.03-4.45-8.66-2.14-2.98-4.75-5.51-7.53-7.14l-97.9-57.41c-3.67-2.14-6.99-2.34-9.38-.95l-9.69 5.66c2.4-1.4 5.71-1.2 9.38.95l97.9 57.41c2.78 1.63 5.39 4.15 7.53 7.14 1.89 2.63 3.43 5.61 4.45 8.66.86 2.56 1.34 5.17 1.34 7.64v4.31c0 4.33-1.52 7.39-3.96 8.82l9.69-5.65c2.45-1.42 3.96-4.48 3.96-8.81v-4.31C692.14 1590.22 691.66 1587.61 690.8 1585.04z" class="colorffffff svgShape"></path><path d="M669.13,1574.89l-97.9-57.41c-7.4-4.31-13.32-0.79-13.31,7.92v4.31c0,8.62,5.92,19.13,13.32,23.44l97.9,57.41
				c7.32,4.26,13.31,0.7,13.31-7.92v-4.31C682.45,1589.62,676.44,1579.16,669.13,1574.89z" fill="#000000" class="color000000 svgShape"></path><path fill="#ffffff" d="M846.35,1676.71c-1.02-3.05-2.56-6.03-4.45-8.66c-2.14-2.98-4.75-5.51-7.53-7.14l-97.9-57.41
				c-3.67-2.14-6.98-2.35-9.38-0.95l-9.69,5.66c2.4-1.4,5.71-1.2,9.38,0.95l97.9,57.41c2.78,1.63,5.39,4.15,7.53,7.14
				c1.89,2.63,3.43,5.61,4.45,8.66c0.86,2.56,1.34,5.17,1.34,7.64v4.31c0,4.33-1.52,7.39-3.96,8.82l9.69-5.65
				c2.45-1.42,3.96-4.48,3.96-8.81v-4.31C847.69,1681.88,847.21,1679.28,846.35,1676.71z" class="colorffffff svgShape"></path><path d="M824.68,1666.56l-97.9-57.41c-7.4-4.31-13.32-0.79-13.31,7.92v4.31c0,8.62,5.92,19.13,13.32,23.44l97.9,57.41
				c7.32,4.26,13.31,0.7,13.31-7.92V1690C838,1681.29,832,1670.83,824.68,1666.56z" fill="#000000" class="color000000 svgShape"></path><path fill="#ffffff" d="M707.15,1217.97c-7.17-4.23-18.83-4.23-26.04,0c-7.21,4.24-7.24,11.09-0.08,15.32
				c7.17,4.23,18.82,4.24,26.04,0C714.28,1229.07,714.32,1222.2,707.15,1217.97z" class="colorffffff svgShape"></path><g fill="#000000" class="color000000 svgShape"><path fill="#ffffff" d="M2073.04,1898.39c-0.81-1.49-3.5-2.5-7.03-2.61c-11.04-0.35-25.21,7.31-31.02,16.72
					c-1.89,3.07-2.56,5.93-1.74,7.45c0.81,1.5,3.5,2.5,7.02,2.61c10.85,0.37,25.31-7.47,31.03-16.73
					C2073.19,1902.77,2073.85,1899.92,2073.04,1898.39z" class="colorffffff svgShape"></path><path d="M2086.91,1890.94c-3.56-6.62-10.99-10.6-20.4-10.9c-6.04-0.19-12.55,1.13-18.79,3.58c-10.7,4.2-20.64,11.71-26.14,20.61
					c-4.98,8.08-5.79,16.52-2.21,23.18c3.56,6.62,10.99,10.59,20.39,10.89c0.4,0.01,0.8,0.02,1.21,0.02
					c16.24,0,35.24-10.45,43.73-24.22C2089.68,1906.04,2090.48,1897.59,2086.91,1890.94z M2040.26,1922.57
					c-3.53-0.11-6.22-1.11-7.02-2.61c-0.82-1.52-0.15-4.38,1.74-7.45c5.81-9.41,19.99-17.07,31.02-16.72
					c3.53,0.11,6.23,1.11,7.03,2.61c0.82,1.52,0.15,4.38-1.74,7.44C2065.58,1915.1,2051.12,1922.94,2040.26,1922.57z" fill="#000000" class="color000000 svgShape"></path></g></g><g fill="#000000" class="color000000 svgShape"><g fill="#000000" class="color000000 svgShape"><path d="M976.52,1313.7h340.29c22.97,0,39.12-18.62,36.06-41.59l-60.52-455.55c-3.05-22.97-24.15-41.59-47.12-41.59H904.94
					c-22.97,0-39.12,18.62-36.06,41.59l60.52,455.55C932.45,1295.08,953.55,1313.7,976.52,1313.7z" fill="#000000" class="color000000 svgShape"></path><path fill="#ffffff" d="M990.64,1267.34h299.72c8.22,0,14.01-6.67,12.91-14.89l-59.79-450.06c-1.09-8.22-8.65-14.89-16.87-14.89
					H926.89c-8.22,0-14.01,6.67-12.91,14.89l59.79,450.06C974.87,1260.68,982.42,1267.34,990.64,1267.34z" class="colorffffff svgShape"></path><path d="M1164.7,785.62c0,0-15.62-27.56-28.48-30.07c-12.86-2.51-124.09,0-124.09,0s-11.33,3.76-20.06,30.07h33.69l1.91,14.41
					h101.48l-1.91-14.41H1164.7z" fill="#000000" class="color000000 svgShape"></path><g fill="#000000" class="color000000 svgShape"><ellipse cx="1008.59" cy="984.82" rx="14.65" ry="16.74" transform="rotate(-46.906 1008.606 984.873)" fill="#000000" class="color000000 svgShape"></ellipse><ellipse cx="1014.93" cy="1032.43" rx="14.65" ry="16.74" transform="rotate(-46.906 1014.949 1032.483)" fill="#000000" class="color000000 svgShape"></ellipse><ellipse cx="1020.94" cy="1077.53" rx="14.65" ry="16.74" transform="rotate(-46.906 1020.958 1077.588)" fill="#000000" class="color000000 svgShape"></ellipse><ellipse cx="1027.12" cy="1123.89" rx="14.65" ry="16.74" transform="rotate(-46.906 1027.134 1123.946)" fill="#000000" class="color000000 svgShape"></ellipse><ellipse cx="1033.29" cy="1170.25" rx="14.65" ry="16.74" transform="rotate(-46.906 1033.31 1170.304)" fill="#000000" class="color000000 svgShape"></ellipse><path d="M1157.68 993.16h-99.31c-4.6 0-8.33-3.73-8.33-8.33 0-4.6 3.73-8.33 8.33-8.33h99.31c4.6 0 8.33 3.73 8.33 8.33C1166.01 989.43 1162.28 993.16 1157.68 993.16zM1217.53 1040.76h-152.82c-4.6 0-8.33-3.73-8.33-8.33s3.73-8.33 8.33-8.33h152.82c4.6 0 8.33 3.73 8.33 8.33S1222.13 1040.76 1217.53 1040.76zM1185.06 1085.87h-114.35c-4.6 0-8.33-3.73-8.33-8.33s3.73-8.33 8.33-8.33h114.35c4.6 0 8.33 3.73 8.33 8.33S1189.67 1085.87 1185.06 1085.87zM1217.38 1130.97h-140.66c-4.6 0-8.33-3.73-8.33-8.33s3.73-8.33 8.33-8.33h140.66c4.6 0 8.33 3.73 8.33 8.33S1221.99 1130.97 1217.38 1130.97zM1154.82 1178.58h-71.75c-4.6 0-8.33-3.73-8.33-8.33s3.73-8.33 8.33-8.33h71.75c4.6 0 8.33 3.73 8.33 8.33S1159.42 1178.58 1154.82 1178.58z" fill="#000000" class="color000000 svgShape"></path></g></g><g fill="#000000" class="color000000 svgShape"><path fill="#ffffff" d="M1133.97,887.88c-2.69-20.19-21.27-36.62-41.43-36.62c-9.2,0-17.34,3.5-22.92,9.87
					c-5.66,6.47-8.1,15.19-6.85,24.56c2.68,20.19,21.27,36.62,41.43,36.62c9.21,0,17.34-3.5,22.92-9.87
					C1132.78,905.98,1135.21,897.26,1133.97,887.88z" class="colorffffff svgShape"></path><path d="M1150.49,885.69c-3.74-28.17-29.74-51.09-57.95-51.09c-14.08,0-26.67,5.52-35.45,15.55
					c-8.88,10.13-12.73,23.54-10.84,37.74c3.74,28.17,29.74,51.1,57.95,51.1c14.08,0,26.67-5.52,35.45-15.55
					C1148.52,913.3,1152.37,899.89,1150.49,885.69z M1104.19,922.31c-20.16,0-38.75-16.43-41.43-36.62
					c-1.25-9.37,1.19-18.1,6.85-24.56c5.57-6.36,13.71-9.87,22.92-9.87c20.16,0,38.74,16.43,41.43,36.62
					c1.25,9.38-1.19,18.1-6.85,24.56C1121.54,918.81,1113.4,922.31,1104.19,922.31z" fill="#000000" class="color000000 svgShape"></path></g></g><polygon fill="#ffffff" points="1131.39 1499.78 1624.1 1759.92 1631 1469.31 1131.39 1220.45" class="colorffffff svgShape"></polygon><polygon fill="#ffffff" points="1646.81 1478.65 1639.88 1758.22 1925.75 1575.24 1932.73 1252.75 1831.46 1248.99" class="colorffffff svgShape"></polygon><path d="M1777.17,1472.37c-1.32,0-2.65-0.33-3.85-1.01c-2.63-1.48-4.19-4.33-4.01-7.34l3.78-63.34c0.14-2.27,1.25-4.37,3.05-5.76
			l62.35-48.13c2.44-1.88,5.75-2.17,8.48-0.74c2.73,1.44,4.36,4.33,4.19,7.41l-3.78,68.04c-0.13,2.42-1.37,4.64-3.36,6.02
			l-62.35,43.43C1780.32,1471.89,1778.75,1472.37,1777.17,1472.37z M1788.6,1405.19l-2.6,43.55l45.87-31.95l2.61-47.02
			L1788.6,1405.19z" fill="#000000" class="color000000 svgShape"></path><path d="M1975.65,1241.94l-533.3-274.06c-3.97-2.25-8.65-2.92-13.1-1.89l-166.13,0.71l-191.48,265.89
			c-4.51,5.76-2.99,14.16,3.24,17.98l40.75,21.76v232.19c0,2.92,1.62,5.6,4.2,6.96L1628,1779.78c0.37,0.2,0.77,0.31,1.16,0.44
			c0.2,0.07,0.39,0.17,0.59,0.22c0.63,0.16,1.28,0.25,1.93,0.25c0.71,0,1.43-0.11,2.12-0.3c0.23-0.06,0.43-0.19,0.65-0.27
			c0.41-0.16,0.83-0.28,1.21-0.51c0.05-0.03,0.08-0.07,0.13-0.1c0.04-0.03,0.09-0.03,0.13-0.06l139.06-89.01l82.4-51.89
			c0.96-0.6,1.71-1.42,2.32-2.33l78.08-49.98c2.21-1.42,3.57-3.84,3.63-6.46l7.09-326.94l25.22,0.83
			C1979.5,1252.57,1980.78,1244.84,1975.65,1241.94z M1131.39,1280.74l460.79,246.05c7.2,4.42,16.64,1.67,20.35-5.92l17.43-21.65
			l-5.88,260.69l-492.7-260.13V1280.74z M1806.8,1576.57c0.17,36.21,0.49,72.25,0.49,72.25c0.01,0.71,0.15,1.38,0.34,2.02
			l-28.47,18.22l5.71-135.63l21.85-14.89C1806.6,1529.74,1806.67,1547.58,1806.8,1576.57z M1822.72,1507.65l22.58-15.38v134.46
			l-22.32,14.29C1822.56,1592.87,1822.2,1523.54,1822.72,1507.65z M1932.73,1252.75l-6.99,322.49l-64.69,41.41v-139.27
			c0-2.92-1.61-5.6-4.19-6.96c-2.58-1.36-5.7-1.19-8.11,0.45l-38.1,25.95c-0.01,0-0.01,0.01-0.02,0.01l-37.89,25.81
			c-2.06,1.4-3.33,3.69-3.43,6.18l-6.34,150.61l-123.07,78.77l6.64-279.56l184.93-229.66l93.78,3.09L1932.73,1252.75z" fill="#000000" class="color000000 svgShape"></path><path d="M1561.59 1524.65l-84.69-43.01c-2.44-1.24-5.35-1.12-7.68.31-2.33 1.43-3.76 3.97-3.76 6.71v80.49c0 2.88 1.58 5.53 4.1 6.91l84.69 46.2c1.18.64 2.47.96 3.77.96 1.39 0 2.78-.37 4.02-1.1 2.39-1.42 3.85-3.99 3.85-6.77v-83.68C1565.9 1528.71 1564.23 1525.99 1561.59 1524.65zM1481.2 1501.49l26.6 13.51v63.99l-26.6-14.51V1501.49zM1550.15 1602.08l-26.69-14.56c.04-.3.09-.6.09-.92V1523l26.6 13.51V1602.08zM1398.44 1437.14l-84.69-43.01c-2.44-1.24-5.35-1.12-7.68.31-2.33 1.43-3.76 3.97-3.76 6.71v80.49c0 2.88 1.58 5.53 4.1 6.91l84.69 46.2c1.18.64 2.47.96 3.77.96 1.39 0 2.78-.37 4.02-1.1 2.39-1.42 3.85-3.99 3.85-6.77v-83.68C1402.75 1441.19 1401.09 1438.48 1398.44 1437.14zM1318.06 1413.98l26.59 13.51v63.99l-26.59-14.51V1413.98zM1387 1514.57l-26.69-14.56c.04-.3.09-.6.09-.92v-63.61l26.6 13.51V1514.57zM1258.84 1364.98l-84.69-43.01c-2.44-1.24-5.35-1.12-7.68.31-2.33 1.43-3.76 3.97-3.76 6.71v80.49c0 2.88 1.58 5.53 4.1 6.91l84.69 46.19c1.18.64 2.47.96 3.77.96 1.39 0 2.78-.37 4.02-1.1 2.39-1.42 3.85-3.99 3.85-6.77V1372C1263.15 1369.04 1261.48 1366.32 1258.84 1364.98zM1178.45 1341.82l26.6 13.51v63.99l-26.6-14.51V1341.82zM1247.4 1442.41l-26.69-14.56c.04-.3.09-.6.09-.92v-63.61l26.6 13.51V1442.41z" fill="#000000" class="color000000 svgShape"></path><path fill="#ffffff" d="M1406.96 1232.74c.27-6.63-1.78-13.45-6.17-20.48-4.39-7.03-11.32-14.57-20.81-22.62-8-6.77-14.18-12.22-18.51-16.34-4.34-4.12-7.21-8.1-8.59-11.93-1.39-3.83-.57-7.52 2.43-11.07 3.28-3.88 8.27-6.07 14.96-6.55 6.69-.49 13.44.87 20.23 4.07 6.61 3.11 11 6.57 13.18 10.36 2.18 3.8 3.29 8.02 3.35 12.66.14 5.61.72 10.04 1.75 13.3 1.03 3.26 3.47 5.79 7.33 7.61 5.32 2.51 10.48 3.2 15.46 2.08 4.98-1.12 9.11-3.62 12.4-7.5 3-3.55 4.72-7.83 5.15-12.82.43-4.99-.65-10.24-3.25-15.73-2.6-5.5-7.01-10.98-13.23-16.45-2.7-2.37-5.79-4.65-9.15-6.85l9.8-11.6c5.52-6.54 4.11-14.61-3.15-18.03-7.26-3.42-17.63-.89-23.15 5.65l-9.47 11.21c-8.5-2.94-16.86-4.63-25.07-4.99-11.8-.53-22.5 1.16-32.08 5.07-9.59 3.92-17.25 9.26-22.97 16.03-6.42 7.6-9.4 15.15-8.93 22.64.47 7.49 3.42 14.74 8.85 21.75s13.4 15 23.89 23.98c9.37 7.88 15.41 14.36 18.11 19.44 2.7 5.08 1.53 10.6-3.49 16.54-3.28 3.88-8.6 6.2-15.97 6.95-7.37.75-14.81-.65-22.33-4.19-9.27-4.36-15.33-9.3-18.18-14.8s-3.66-12.17-2.42-20.02c.72-4.05.76-7.43.12-10.16s-2.94-5.02-6.89-6.88c-4.5-2.12-9.33-2.55-14.5-1.28-5.17 1.26-9.32 3.75-12.46 7.47-4.75 5.62-7.18 12.29-7.3 20.03-.12 7.74 3.06 15.73 9.55 23.99 4.18 5.32 9.84 10.23 16.92 14.76l-7.77 9.19c-5.52 6.54-4.11 14.61 3.15 18.03 7.26 3.42 17.63.89 23.15-5.65l7.6-9c9.4 3.4 18.49 5.54 27.25 6.38 12.76 1.22 24.47-.31 35.14-4.59 10.66-4.28 19.94-11.08 27.83-20.42C1403.93 1245.78 1406.68 1239.36 1406.96 1232.74zM1561.33 1317.13c.27-6.63-1.78-13.45-6.17-20.48-4.39-7.03-11.32-14.57-20.81-22.62-8-6.77-14.18-12.22-18.51-16.34-4.34-4.12-7.21-8.1-8.59-11.93-1.39-3.83-.57-7.52 2.43-11.07 3.28-3.88 8.27-6.07 14.96-6.55 6.69-.49 13.44.87 20.23 4.07 6.61 3.11 11 6.57 13.18 10.36 2.18 3.8 3.29 8.02 3.35 12.66.14 5.61.72 10.04 1.75 13.3 1.03 3.26 3.47 5.79 7.33 7.61 5.32 2.51 10.48 3.2 15.46 2.08 4.98-1.12 9.11-3.62 12.4-7.5 3-3.55 4.72-7.83 5.15-12.82.43-4.99-.65-10.24-3.25-15.73-2.6-5.5-7.01-10.98-13.23-16.45-2.7-2.37-5.79-4.65-9.15-6.85l9.8-11.6c5.52-6.54 4.11-14.61-3.15-18.03s-17.63-.89-23.15 5.65l-9.47 11.21c-8.5-2.94-16.86-4.63-25.07-4.99-11.8-.53-22.5 1.16-32.08 5.07-9.59 3.92-17.25 9.26-22.97 16.03-6.42 7.6-9.4 15.15-8.93 22.64.47 7.49 3.42 14.74 8.85 21.75 5.43 7 13.4 15 23.89 23.98 9.37 7.88 15.41 14.36 18.11 19.44 2.7 5.08 1.53 10.6-3.49 16.54-3.28 3.88-8.6 6.2-15.97 6.95-7.37.75-14.81-.65-22.33-4.19-9.27-4.36-15.33-9.3-18.18-14.8-2.86-5.5-3.66-12.17-2.42-20.02.72-4.05.76-7.43.12-10.16s-2.94-5.02-6.89-6.88c-4.5-2.12-9.33-2.55-14.5-1.28-5.17 1.26-9.32 3.75-12.46 7.47-4.75 5.62-7.18 12.29-7.3 20.03-.12 7.74 3.06 15.73 9.55 23.99 4.18 5.32 9.84 10.23 16.92 14.76l-7.77 9.19c-5.52 6.54-4.11 14.61 3.15 18.03 7.26 3.42 17.63.89 23.15-5.65l7.6-9c9.4 3.4 18.49 5.54 27.25 6.38 12.76 1.22 24.47-.31 35.14-4.59 10.66-4.28 19.94-11.08 27.83-20.42C1558.3 1330.17 1561.05 1323.76 1561.33 1317.13z" class="colorffffff svgShape"></path><g fill="#000000" class="color000000 svgShape"><path d="M1065.41,1932.78l-33.1-3.23l15.53-24.63l-15.9-25.21l-28.43,1.24l15.04-22.47l-12.97-20.57l-29.19-2.92l15.39-18.98
				l-11.71-18.58l-22.77,1.38l5.57-24.61l-31.64-50.17c46.76-53.83,55.1-134.09,15.15-197.44
				c-48.81-77.41-151.51-100.68-228.93-51.85c-77.41,48.82-100.68,151.52-51.85,228.93c31.52,49.99,85.51,77.4,140.66,77.4
				c14,0,28.07-1.79,41.86-5.4l152.8,242.29l26.17,15.02l39.14-24.68l12.37-54.63L1065.41,1932.78z" fill="#000000" class="color000000 svgShape"></path><path fill="#ffffff" d="M932.28,1535.5c-21.28-33.73-54.41-57.17-93.31-65.98c-11.06-2.5-22.21-3.74-33.27-3.74
				c-27.86,0-55.21,7.85-79.36,23.07c-69.64,43.92-90.57,136.31-46.65,205.95c28.36,44.97,76.93,69.62,126.54,69.63
				c27.22,0,54.74-7.42,79.41-22.98C955.27,1697.53,976.19,1605.14,932.28,1535.5z" class="colorffffff svgShape"></path><circle cx="805.98" cy="1615.15" r="90.61" fill="#000000" class="color000000 svgShape"></circle></g><path d="M1698.07 1819.03c-2.58 0-5.11-1.27-6.62-3.59-2.37-3.65-1.32-8.52 2.33-10.89l268.23-173.8c3.64-2.37 8.52-1.33 10.89 2.33 2.37 3.65 1.32 8.52-2.33 10.89l-268.23 173.8C1701.02 1818.62 1699.54 1819.03 1698.07 1819.03zM1738.25 1846.19c-2.58 0-5.11-1.27-6.62-3.59-2.37-3.65-1.32-8.52 2.33-10.89l218.39-141.5c3.64-2.37 8.52-1.32 10.89 2.33 2.37 3.65 1.32 8.52-2.33 10.89l-218.39 141.5C1741.2 1845.78 1739.72 1846.19 1738.25 1846.19zM1790.19 1866.48c-2.58 0-5.11-1.27-6.62-3.59-2.37-3.65-1.32-8.52 2.33-10.89l258.17-167.28c3.64-2.37 8.52-1.32 10.89 2.33 2.37 3.65 1.32 8.52-2.33 10.89l-258.17 167.28C1793.14 1866.07 1791.66 1866.48 1790.19 1866.48zM1837.22 1888.56c-2.58 0-5.11-1.27-6.62-3.59-2.37-3.65-1.32-8.52 2.33-10.89l129.09-83.64c3.64-2.37 8.52-1.33 10.89 2.33 2.37 3.65 1.32 8.52-2.33 10.89l-129.09 83.64C1840.17 1888.15 1838.69 1888.56 1837.22 1888.56zM1064.71 1679.91c-2.45 0-4.86-1.14-6.4-3.28-2.54-3.53-1.74-8.45 1.79-10.99l99.99-71.93c3.53-2.54 8.45-1.74 10.99 1.79 2.54 3.53 1.74 8.45-1.79 10.99l-99.99 71.93C1067.91 1679.43 1066.3 1679.91 1064.71 1679.91zM1107.69 1704.31c-2.45 0-4.86-1.14-6.4-3.28-2.54-3.53-1.74-8.45 1.79-10.99l60.12-43.25c3.53-2.54 8.45-1.74 10.99 1.79 2.54 3.53 1.74 8.45-1.79 10.99l-60.12 43.25C1110.89 1703.83 1109.28 1704.31 1107.69 1704.31zM1149.46 1729.09c-2.45 0-4.86-1.14-6.4-3.28-2.54-3.53-1.74-8.45 1.79-10.99l78.37-56.38c3.53-2.54 8.45-1.74 10.99 1.79 2.54 3.53 1.74 8.45-1.79 10.99l-78.37 56.38C1152.66 1728.61 1151.05 1729.09 1149.46 1729.09zM1625.19 905.83c-2.68 0-4.83-.81-6.23-1.54-7.47-3.91-15.26-15.03-16.44-67.89-1.44-64.63 24.92-131.01 76.24-191.98 7.76-9.21 16.06-18.26 24.84-27.08 6.29-45.21 9.59-89.68 6.86-124.09-4.18-52.69-40.45-61.2-70.12-59.02-41.71 3.03-94.14 29.32-136.85 68.03 6.4 18.81 10.92 38.03 13.48 57.51 7.14 54.24-1.66 110.45-23.54 150.34-16.31 29.75-37.13 45.07-55.75 40.95-13.79-3.05-30.96-17.62-34.4-69.66-4.6-69.6 31.8-135.4 81.8-183.8-16.37-43.12-43.23-83.86-79.51-120.14-42.18-42.19-78.4-57.51-107.65-45.56-40.39 16.51-71.16 85.1-88.98 198.36-13.72 87.26-14.66 170.46-14.66 171.29-.04 4.32-3.56 7.8-7.88 7.8-.02 0-.05 0-.07 0-4.35-.04-7.84-3.6-7.8-7.95.13-13.84 4.42-339.52 113.43-384.08 35.68-14.57 77.65 1.9 124.74 49 36.23 36.23 63.5 76.81 80.81 119.83 44.64-39.02 97.64-64.43 141.69-67.64 51.27-3.72 82.96 23.05 86.96 73.48 2.36 29.74.44 67.47-4.37 107.98 34.81-31.53 75.14-59.11 116.09-78.94 62.99-30.51 114.68-37.07 138.27-17.57 3.35 2.77 3.82 7.74 1.05 11.09-2.77 3.35-7.73 3.83-11.09 1.05-17.87-14.78-66.64-6.89-121.37 19.61-43.53 21.08-88.16 51.87-126.17 89.35-17.48 122.69-57.82 260.65-84.71 278.42C1630.65 905.12 1627.69 905.83 1625.19 905.83zM1699.48 644.62c-48.95 54.76-82.77 121.22-81.21 191.43.88 39.69 5.67 50.75 7.48 53.54 9.57-6.41 32.71-57.29 55.46-153.36C1687.76 708.53 1694.22 676.87 1699.48 644.62zM1490.87 514.36c-67.51 68.33-74.04 133.24-71.88 166 2.12 32.05 10.38 52.73 22.09 55.32 10.91 2.41 26.35-10.92 38.54-33.14 20.33-37.07 28.45-89.67 21.73-140.72C1499.25 545.81 1495.74 529.95 1490.87 514.36zM2032.95 1112.82l-4.59 3.84-7.84-9.36.01-.02c1.27-1.2 2.53-2.4 3.77-3.65 1.21-1.18 2.4-2.37 3.57-3.62.54-.55 1.06-1.12 1.58-1.7 1.17-1.25 2.3-2.49 3.42-3.77.69-.77 1.37-1.57 2.04-2.36 58.62-68.88 56.59-169.02-.92-235.32-1.11-1.29-2.23-2.56-3.39-3.83-1.28-1.37-2.57-2.74-3.88-4.08-1.18-1.21-2.39-2.42-3.6-3.59-2.79-2.73-5.71-5.35-8.69-7.89-2.54-2.16-5.11-4.24-7.72-6.22-4.47-3.42-9.08-6.57-13.78-9.52-44.88-28.08-98.79-34.3-147.41-19.78-9.7 2.88-19.19 6.59-28.38 11.13-.58.27-1.16.59-1.72.88-.57.25-1.11.56-1.63.85-3.22 1.64-6.36 3.41-9.45 5.26-8.01 4.8-15.72 10.28-23.02 16.43-1.95 1.59-3.84 3.28-5.74 4.98-.3.31-.61.6-.95.91-.04 0-.05.02-.09.06-.16.14-.32.29-.46.45-.2.15-.37.31-.56.5l-.12.14c-.09.06-.2.15-.28.25-.14.12-.28.25-.4.39-.33.31-.67.62-.98.95-2 1.94-3.98 3.93-5.89 5.98-.26.27-.54.55-.78.84-.42.45-.84.9-1.25 1.35-1.39 1.51-2.74 3.06-4.09 4.64-.59.69-1.16 1.36-1.72 2.07-2.39 2.9-4.69 5.84-6.85 8.87-6.25 8.54-11.64 17.5-16.17 26.77-14.54 29.63-20.36 62.21-17.72 94.07.08 1.26.2 2.48.32 3.7.49 4.9 1.18 9.79 2.1 14.64 7.27 39.41 27.65 76.63 60.53 104.62.55.47 1.1.93 1.66 1.38 25.19 20.95 54.46 33.9 84.67 39.09 13.71 2.36 27.6 3.11 41.41 2.31 28.79-1.71 57.17-10.25 82.46-25.44l9.07 10.83-4.59 3.84 208.14 249.13 38.07-31.87L2032.95 1112.82zM1967.65 1108.76c-24.11 12.7-51.1 18.5-77.93 17.16-6.38-.32-12.73-1.04-19.03-2.16-24.81-4.42-48.83-15.1-69.6-32.28-.57-.45-1.11-.91-1.66-1.38-21.13-17.99-36.09-40.55-44.63-64.98-9.28-26.45-11.03-55.11-4.99-82.56.32-1.41.64-2.81.98-4.2l.7-2.63c.26-1.04.55-2.05.85-3.09l.3-1.01c.27-.89.54-1.78.84-2.68l.64-1.94.61-1.79c.46-1.32.94-2.63 1.44-3.95l1.24-3.14c.32-.78.63-1.56.97-2.33.01-.06.05-.1.06-.16.06-.16.11-.29.19-.43.54-1.29 1.14-2.57 1.73-3.85l.7-1.47c.63-1.35 1.31-2.7 2-4.04.07-.12.13-.28.21-.41.66-1.23 1.32-2.45 1.99-3.66.26-.51.54-1.01.82-1.5.86-1.51 1.76-3.02 2.68-4.51 1.6-2.62 3.33-5.18 5.11-7.73.59-.86 1.22-1.73 1.85-2.59 0 0 .02.02.02-.02.22-.26.41-.53.62-.81.87-1.15 1.74-2.3 2.64-3.43l.28-.32c.19-.26.41-.53.64-.79.79-.97 1.58-1.94 2.4-2.9.76-.89 1.52-1.79 2.3-2.63 3.1-3.52 6.33-6.83 9.72-9.93.33-.35.68-.68 1.05-.99.02-.02.03-.04.07-.04 0-.04.02-.02.02-.02 0-.04.01-.06.05-.06.07-.08.14-.16.21-.21.02-.02.03-.04.03-.04.04-.04.05-.06.09-.06 16.79-15.29 36.36-26.15 57.11-32.5 24.23-7.41 50.08-8.66 74.96-3.51 6.59 1.34 13.11 3.14 19.5 5.39 2.02.71 4.07 1.47 6.07 2.29 11.21 4.47 22.03 10.39 32.18 17.76 3.27 2.33 6.44 4.82 9.54 7.46.93.79 1.85 1.57 2.75 2.41 1.06.94 2.08 1.88 3.12 2.83.74.7 1.46 1.41 2.18 2.13.22.19.41.38.59.58 1.21 1.17 2.4 2.4 3.56 3.63.29.32.58.63.87.95.46.49.93 1 1.37 1.52.54.56 1.04 1.13 1.54 1.73 1.14 1.29 2.23 2.6 3.32 3.91.1.12.21.25.29.35.84 1.03 1.66 2.08 2.47 3.15.04.07.1.12.15.2.34.43.68.89 1 1.34.76 1 1.48 2 2.19 3.02.34.43.66.87.94 1.32.81 1.18 1.63 2.37 2.41 3.59.77 1.15 1.49 2.32 2.21 3.49.35.54.67 1.1.98 1.64 1.42 2.36 2.77 4.77 4.02 7.2.36.65.69 1.33 1.03 2 .52 1.04 1.02 2.05 1.52 3.11.41.84.81 1.67 1.17 2.53.59 1.24 1.13 2.5 1.66 3.76.61 1.43 1.17 2.86 1.71 4.29.64 1.63 1.23 3.25 1.79 4.89 1.18 3.39 2.21 6.78 3.13 10.23.4 1.46.76 2.93 1.09 4.43.47 1.84.86 3.67 1.22 5.52.32 1.64.62 3.3.89 4.96.29 1.72.54 3.4.75 5.12 5.2 40.69-6.12 83.36-34.8 117.06-.67.79-1.35 1.58-2.04 2.36-1.13 1.28-2.26 2.53-3.44 3.76-.52.57-1.06 1.12-1.61 1.68-1.21 1.21-2.4 2.41-3.63 3.56-3.48 3.34-7.08 6.47-10.82 9.42-4.07 3.22-8.29 6.21-12.61 8.94C1974.75 1104.86 1971.23 1106.9 1967.65 1108.76zM792.75 2373.57c-1 0-1.92-.12-2.78-.3-13.66-2.94-9.73-22.69-8.44-29.18 7.27-36.6 49.47-83.35 98.93-123.79 21.08-45.36 41.17-98.88 54.33-155.78 9.31-40.25-2.47-64.88-35.01-73.21-48.85-12.52-133.28 12.65-206.46 54.7-17.84 41.89-38.89 82.54-61.35 117.94-49.98 78.8-74.63 85.55-84.88 82.56-19.4-5.66-11.99-40.62-4.73-66.42 14.82-52.66 71.69-105.68 138.46-144.96 11.15-26.61 20.96-53.67 28.93-80.08 10.37-34.37 9.09-56.57-3.8-66-12.66-9.25-50.75-15.93-163.66 43.39-65.89 34.62-125.17 75.12-125.76 75.53-3.6 2.46-8.49 1.54-10.95-2.04-2.46-3.59-1.54-8.49 2.04-10.95.6-.41 60.64-41.44 127.34-76.48 93.17-48.96 152.14-62.75 180.28-42.16 18.86 13.8 22.08 41.81 9.58 83.25-6.3 20.89-13.72 42.15-22.03 63.28 72.43-38.2 152.04-59.35 200.9-46.82 55.63 14.26 52.98 63.77 46.44 92.02-11.38 49.19-27.55 94.38-43.45 131.85 9.61-7.1 19.31-13.87 28.92-20.21 22.23-14.67 97.79-61.9 136.73-53.68 4.26.9 6.98 5.07 6.08 9.33-.9 4.26-5.08 6.99-9.33 6.08-21.59-4.54-70.59 15.62-124.8 51.42-18.12 11.96-35.28 24.52-51.05 37.23-9.55 20.4-18.42 37.4-25.41 50.1-14.77 26.84-30.08 50.76-43.11 67.36C807.83 2369.06 798.85 2373.57 792.75 2373.57zM862.46 2256.72c-36.34 33.91-60.79 66.8-65.48 90.42-.78 3.92-1.1 6.72-1.19 8.67C807.6 2346.91 834.42 2310.18 862.46 2256.72zM551.76 2231.39c.04 0 .08 0 .12 0 6.27 0 30.83-18.79 67.86-77.57 17.93-28.45 34.93-60.33 50.04-93.45-55.02 35.68-99.97 80.34-112.24 123.96C547.17 2221.16 550.94 2230.03 551.76 2231.39z" fill="#000000" class="color000000 svgShape"></path><g fill="#000000" class="color000000 svgShape"><path d="M1993.09,2101.24c-72.66-0.96-142.75,15.64-197.38,46.72c-54.15,30.81-87.02,72.41-93.04,117.49l-0.01,0.02l-4.92,57.82
				c-0.58,3.26-1.04,6.53-1.36,9.83c-4.84,49.86,29.28,96.36,80.94,130.94c49.16,32.91,116.65,49.75,190.05,49.75
				c80.74,0,138.78-21.42,194.19-52.95c58.23-33.14,84.62-70.51,89.46-120.36c0.32-3.3,0.5-6.57,0.55-9.84l0.83-52.54
				c-0.13-0.5-0.28-0.99-0.43-1.48c2.71-32.45-8.86-64.14-33.56-91.72C2172.62,2133.78,2088.38,2102.5,1993.09,2101.24z
				 M1748.55,2206.39c0.95-1.1,1.9-2.19,2.89-3.28C1750.45,2204.2,1749.5,2205.3,1748.55,2206.39z M1754.01,2200.38
				c1.01-1.06,2.03-2.12,3.09-3.17C1756.04,2198.26,1755.02,2199.32,1754.01,2200.38z M1734.46,2225.67
				c0.81-1.33,1.61-2.67,2.47-3.99C1736.07,2223,1735.27,2224.34,1734.46,2225.67z M1738.81,2218.97c0.83-1.21,1.66-2.42,2.54-3.61
				C1740.46,2216.55,1739.64,2217.76,1738.81,2218.97z M1743.48,2212.58c0.89-1.14,1.77-2.29,2.7-3.42
				C1745.25,2210.3,1744.37,2211.44,1743.48,2212.58z M1759.86,2194.53c1.08-1.03,2.17-2.05,3.28-3.06
				C1762.03,2192.48,1760.94,2193.5,1759.86,2194.53z M1766.09,2188.84c1.14-1,2.31-1.99,3.48-2.97
				C1768.39,2186.86,1767.23,2187.85,1766.09,2188.84z M2219.53,2213.91c0.11,0.18,0.23,0.35,0.34,0.53
				C2219.76,2214.26,2219.64,2214.09,2219.53,2213.91z M2223.43,2220.58c0.05,0.09,0.09,0.18,0.14,0.27
				C2223.52,2220.76,2223.48,2220.67,2223.43,2220.58z M1935.09,2121.05c2.1-0.26,4.21-0.49,6.33-0.71
				C1939.31,2120.56,1937.19,2120.79,1935.09,2121.05z M1902.09,2126.48c1.96-0.41,3.93-0.8,5.92-1.18
				C1906.03,2125.68,1904.05,2126.07,1902.09,2126.48z M1912.92,2124.39c2.01-0.36,4.02-0.7,6.04-1.03
				C1916.94,2123.69,1914.92,2124.03,1912.92,2124.39z M1923.92,2122.58c2.05-0.31,4.11-0.59,6.17-0.87
				C1928.03,2121.99,1925.97,2122.27,1923.92,2122.58z M1992.87,2117.9c-3.94-0.05-7.87-0.04-11.78,0.01
				C1985,2117.86,1988.93,2117.85,1992.87,2117.9z M1977.16,2118.02c-2.59,0.06-5.18,0.12-7.75,0.22
				C1971.98,2118.14,1974.57,2118.08,1977.16,2118.02z M1964.79,2118.48c-2.32,0.12-4.64,0.24-6.94,0.39
				C1960.15,2118.72,1962.47,2118.6,1964.79,2118.48z M1952.96,2119.26c-2.19,0.18-4.39,0.35-6.57,0.56
				C1948.58,2119.61,1950.77,2119.43,1952.96,2119.26z M1897.24,2127.51c-1.95,0.43-3.88,0.87-5.8,1.33
				C1893.37,2128.38,1895.3,2127.94,1897.24,2127.51z M1886.68,2129.98c-1.92,0.48-3.82,0.98-5.71,1.48
				C1882.86,2130.96,1884.76,2130.46,1886.68,2129.98z M1876.34,2132.72c-1.9,0.53-3.78,1.09-5.66,1.65
				C1872.56,2133.81,1874.44,2133.25,1876.34,2132.72z M1866.21,2135.7c-1.9,0.59-3.77,1.21-5.65,1.83
				C1862.44,2136.91,1864.31,2136.29,1866.21,2135.7z M1856.32,2138.93c-1.93,0.66-3.82,1.36-5.72,2.05
				C1852.5,2140.29,1854.39,2139.6,1856.32,2138.93z M1846.67,2142.41c-2.05,0.77-4.06,1.58-6.08,2.39
				C1842.61,2143.99,1844.62,2143.18,1846.67,2142.41z M1837.27,2146.11c-2.77,1.14-5.51,2.32-8.21,3.53
				C1831.76,2148.43,1834.49,2147.25,1837.27,2146.11z M1828.13,2150.04c-2.99,1.34-5.92,2.72-8.81,4.14
				C1822.21,2152.76,1825.15,2151.38,1828.13,2150.04z M1772.68,2183.34c1.21-0.97,2.45-1.93,3.7-2.89
				C1775.13,2181.4,1773.89,2182.36,1772.68,2183.34z M1779.63,2178c1.29-0.95,2.6-1.88,3.92-2.81
				C1782.23,2176.12,1780.91,2177.05,1779.63,2178z M1786.92,2172.85c1.37-0.93,2.77-1.84,4.17-2.74
				C1789.69,2171.01,1788.29,2171.92,1786.92,2172.85z M1794.55,2167.88c1.46-0.91,2.96-1.81,4.46-2.7
				C1797.51,2166.08,1796.01,2166.97,1794.55,2167.88z M1802.5,2163.11c1.59-0.92,3.22-1.81,4.85-2.7
				C1805.72,2161.31,1804.09,2162.2,1802.5,2163.11z M1810.76,2158.54c1.83-0.97,3.7-1.91,5.56-2.84
				C1814.46,2156.64,1812.59,2157.57,1810.76,2158.54z M1729.43,2234.71C1729.43,2234.72,1729.43,2234.72,1729.43,2234.71
				L1729.43,2234.71C1729.43,2234.72,1729.43,2234.72,1729.43,2234.71z M1732.96,2228.14c-1.02,1.77-1.96,3.56-2.88,5.36
				C1731,2231.7,1731.94,2229.91,1732.96,2228.14z M2226.83,2227.47c-0.12-0.26-0.23-0.51-0.35-0.77
				C2226.6,2226.96,2226.71,2227.21,2226.83,2227.47z M2229.38,2233.58c-0.01-0.03-0.02-0.05-0.03-0.08
				C2229.36,2233.53,2229.37,2233.56,2229.38,2233.58z M2216.13,2208.81c-0.37-0.53-0.75-1.06-1.14-1.59
				C2215.38,2207.75,2215.76,2208.28,2216.13,2208.81z M2211.87,2203.07c-0.42-0.53-0.82-1.06-1.25-1.59
				C2211.05,2202.01,2211.45,2202.54,2211.87,2203.07z" fill="#000000" class="color000000 svgShape"></path><path fill="#ffffff" d="M2206.01,2196.04c-42.75-47.73-122.43-76.94-213.14-78.13c-130.08-1.71-243.72,55.22-269.21,130.69
				c-2.48,7.35-4.13,14.87-4.87,22.54c-2.74,28.22,7.39,56.05,29.29,80.5c42.75,47.73,122.43,76.94,213.14,78.13
				c142.74,1.88,265.69-66.82,274.08-153.23C2238.03,2248.32,2227.91,2220.49,2206.01,2196.04z" class="colorffffff svgShape"></path><path fill="#ffffff" d="M2139.64,2216.92c-29.75-33.22-87.62-54.37-151.02-55.21c-92.2-1.21-172.71,38.85-190.65,91.95
				c-1.73,5.13-2.88,10.38-3.4,15.72c-1.9,19.55,5.16,38.87,20.4,55.89c29.75,33.22,87.62,54.37,151.02,55.21
				c101.11,1.33,188.16-46.95,194.04-107.68C2161.94,2253.26,2154.88,2233.93,2139.64,2216.92z" class="colorffffff svgShape"></path><path d="M1988.84,2145.05c-52.48-0.69-103.15,11.31-142.65,33.79c-40.66,23.14-64.88,54.72-68.2,88.94
				c-2.36,24.31,6.14,48.04,24.57,68.62c33.26,37.13,94.28,59.85,163.22,60.75c52.48,0.69,103.15-11.31,142.65-33.79
				c32.89-18.72,55.03-42.96,64.04-69.66c2.13-6.3,3.53-12.74,4.16-19.28c2.36-24.31-6.14-48.04-24.57-68.62
				C2118.79,2168.66,2057.78,2145.95,1988.84,2145.05z M1965.99,2380.49c-63.4-0.84-121.27-21.99-151.02-55.21
				c-15.24-17.02-22.29-36.34-20.4-55.89c0.52-5.35,1.67-10.59,3.4-15.72c17.93-53.1,98.44-93.17,190.65-91.95
				c63.4,0.83,121.27,21.99,151.02,55.21c15.24,17.01,22.29,36.34,20.4,55.89C2154.15,2333.54,2067.1,2381.81,1965.99,2380.49z" fill="#000000" class="color000000 svgShape"></path></g><g fill="#000000" class="color000000 svgShape"><path d="M1856.18,1992.53c-72.66-0.96-142.75,15.64-197.38,46.72c-54.15,30.81-87.02,72.41-93.04,117.49l-0.01,0.02l-4.92,57.82
				c-0.58,3.26-1.04,6.53-1.36,9.83c-4.84,49.86,29.28,96.36,80.94,130.94c49.16,32.91,116.65,49.75,190.05,49.75
				c80.74,0,138.78-21.42,194.19-52.95c58.23-33.14,84.62-70.51,89.46-120.36c0.32-3.3,0.5-6.57,0.55-9.84l0.83-52.54
				c-0.13-0.5-0.28-0.99-0.43-1.48c2.71-32.45-8.86-64.14-33.56-91.72C2035.71,2025.07,1951.47,1993.79,1856.18,1992.53z
				 M1611.65,2097.69c0.95-1.1,1.9-2.2,2.89-3.28C1613.54,2095.49,1612.59,2096.59,1611.65,2097.69z M1617.1,2091.67
				c1.01-1.06,2.03-2.12,3.09-3.17C1619.14,2089.55,1618.12,2090.61,1617.1,2091.67z M1597.56,2116.97
				c0.81-1.33,1.61-2.67,2.47-3.99C1599.17,2114.29,1598.37,2115.63,1597.56,2116.97z M1601.9,2110.26
				c0.83-1.21,1.66-2.42,2.54-3.61C1603.56,2107.84,1602.73,2109.05,1601.9,2110.26z M1606.58,2103.88c0.89-1.14,1.77-2.29,2.7-3.42
				C1608.35,2101.59,1607.47,2102.73,1606.58,2103.88z M1622.95,2085.82c1.08-1.03,2.17-2.05,3.28-3.06
				C1625.12,2083.77,1624.03,2084.79,1622.95,2085.82z M1629.18,2080.14c1.14-1,2.31-1.99,3.48-2.97
				C1631.49,2078.15,1630.33,2079.14,1629.18,2080.14z M2082.62,2105.2c0.11,0.18,0.23,0.35,0.34,0.53
				C2082.86,2105.55,2082.73,2105.38,2082.62,2105.2z M2086.53,2111.88c0.05,0.09,0.09,0.18,0.14,0.27
				C2086.62,2112.05,2086.57,2111.96,2086.53,2111.88z M1798.19,2012.34c2.1-0.26,4.21-0.49,6.33-0.71
				C1802.4,2011.86,1800.29,2012.09,1798.19,2012.34z M1765.19,2017.77c1.96-0.41,3.93-0.8,5.92-1.18
				C1769.12,2016.97,1767.15,2017.36,1765.19,2017.77z M1776.01,2015.68c2.01-0.36,4.02-0.7,6.04-1.03
				C1780.04,2014.98,1778.02,2015.32,1776.01,2015.68z M1787.02,2013.87c2.05-0.31,4.11-0.59,6.17-0.87
				C1791.13,2013.28,1789.07,2013.56,1787.02,2013.87z M1855.97,2009.2c-3.94-0.05-7.87-0.04-11.78,0.01
				C1848.1,2009.15,1852.02,2009.15,1855.97,2009.2z M1840.25,2009.31c-2.59,0.06-5.18,0.12-7.75,0.22
				C1835.08,2009.43,1837.67,2009.37,1840.25,2009.31z M1827.88,2009.78c-2.32,0.12-4.64,0.24-6.94,0.39
				C1823.24,2010.01,1825.56,2009.9,1827.88,2009.78z M1816.06,2010.55c-2.19,0.17-4.39,0.35-6.57,0.56
				C1811.67,2010.9,1813.87,2010.73,1816.06,2010.55z M1760.34,2018.8c-1.95,0.43-3.88,0.87-5.8,1.33
				C1756.46,2019.67,1758.39,2019.23,1760.34,2018.8z M1749.78,2021.28c-1.92,0.48-3.82,0.98-5.71,1.48
				C1745.96,2022.25,1747.86,2021.76,1749.78,2021.28z M1739.44,2024.01c-1.9,0.53-3.78,1.09-5.66,1.65
				C1735.65,2025.1,1737.53,2024.54,1739.44,2024.01z M1729.31,2027c-1.9,0.59-3.77,1.21-5.65,1.83
				C1725.54,2028.2,1727.41,2027.59,1729.31,2027z M1719.42,2030.23c-1.93,0.66-3.82,1.36-5.72,2.05
				C1715.59,2031.58,1717.49,2030.89,1719.42,2030.23z M1709.76,2033.7c-2.05,0.77-4.06,1.58-6.08,2.39
				C1705.7,2035.28,1707.71,2034.47,1709.76,2033.7z M1700.36,2037.4c-2.77,1.14-5.51,2.32-8.21,3.53
				C1694.86,2039.73,1697.59,2038.54,1700.36,2037.4z M1691.23,2041.33c-2.99,1.34-5.92,2.72-8.81,4.14
				C1685.31,2044.05,1688.24,2042.67,1691.23,2041.33z M1635.77,2074.63c1.21-0.97,2.45-1.93,3.7-2.89
				C1638.22,2072.7,1636.99,2073.66,1635.77,2074.63z M1642.72,2069.29c1.29-0.95,2.6-1.88,3.92-2.81
				C1645.32,2067.41,1644.01,2068.35,1642.72,2069.29z M1650.02,2064.14c1.37-0.93,2.77-1.84,4.17-2.74
				C1652.79,2062.3,1651.38,2063.21,1650.02,2064.14z M1657.64,2059.18c1.46-0.91,2.96-1.81,4.46-2.7
				C1660.61,2057.37,1659.11,2058.26,1657.64,2059.18z M1665.59,2054.4c1.59-0.92,3.22-1.81,4.85-2.7
				C1668.82,2052.6,1667.18,2053.49,1665.59,2054.4z M1673.86,2049.83c1.83-0.97,3.7-1.91,5.56-2.84
				C1677.55,2047.93,1675.68,2048.86,1673.86,2049.83z M1592.53,2126.01C1592.53,2126.01,1592.53,2126.01,1592.53,2126.01
				L1592.53,2126.01C1592.53,2126.01,1592.53,2126.01,1592.53,2126.01z M1596.06,2119.43c-1.02,1.77-1.96,3.56-2.88,5.36
				C1594.09,2122.99,1595.04,2121.2,1596.06,2119.43z M2089.93,2118.76c-0.12-0.26-0.23-0.51-0.35-0.77
				C2089.69,2118.25,2089.81,2118.51,2089.93,2118.76z M2092.48,2124.88c-0.01-0.03-0.02-0.05-0.03-0.08
				C2092.46,2124.82,2092.47,2124.85,2092.48,2124.88z M2079.23,2100.1c-0.37-0.53-0.75-1.06-1.14-1.59
				C2078.48,2099.04,2078.86,2099.57,2079.23,2100.1z M2074.96,2094.36c-0.42-0.53-0.82-1.06-1.25-1.59
				C2074.14,2093.3,2074.55,2093.83,2074.96,2094.36z" fill="#000000" class="color000000 svgShape"></path><path fill="#ffffff" d="M2069.1,2087.33c-42.75-47.73-122.43-76.94-213.14-78.13c-130.08-1.71-243.72,55.22-269.21,130.69
				c-2.48,7.35-4.13,14.87-4.87,22.54c-2.74,28.22,7.39,56.05,29.29,80.5c42.75,47.73,122.43,76.94,213.14,78.13
				c142.74,1.88,265.69-66.82,274.08-153.23C2101.13,2139.61,2091,2111.78,2069.1,2087.33z" class="colorffffff svgShape"></path><path fill="#ffffff" d="M2002.74,2108.21c-29.75-33.22-87.62-54.37-151.02-55.21c-92.2-1.21-172.71,38.85-190.65,91.95
				c-1.73,5.13-2.88,10.38-3.4,15.72c-1.9,19.55,5.16,38.87,20.4,55.89c29.75,33.22,87.62,54.37,151.02,55.21
				c101.11,1.33,188.16-46.95,194.04-107.68C2025.03,2144.55,2017.98,2125.22,2002.74,2108.21z" class="colorffffff svgShape"></path><path d="M1851.93,2036.34c-52.48-0.69-103.15,11.31-142.65,33.79c-40.66,23.14-64.88,54.72-68.2,88.94
				c-2.36,24.31,6.14,48.04,24.57,68.62c33.26,37.13,94.28,59.85,163.22,60.75c52.48,0.69,103.15-11.31,142.65-33.79
				c32.89-18.72,55.03-42.96,64.04-69.66c2.13-6.3,3.53-12.74,4.16-19.28c2.36-24.31-6.14-48.04-24.57-68.62
				C1981.89,2059.96,1920.87,2037.24,1851.93,2036.34z M1829.09,2271.78c-63.4-0.84-121.27-21.99-151.02-55.21
				c-15.24-17.02-22.29-36.34-20.4-55.89c0.52-5.35,1.67-10.59,3.4-15.72c17.93-53.1,98.44-93.17,190.65-91.95
				c63.4,0.83,121.27,21.99,151.02,55.21c15.24,17.01,22.29,36.34,20.4,55.89C2017.25,2224.83,1930.2,2273.11,1829.09,2271.78z" fill="#000000" class="color000000 svgShape"></path></g></g></g></svg>